<svg width="96" height="96" viewBox="0 0 96 96" fill="none" xmlns="http://www.w3.org/2000/svg">
  <rect width="96" height="96" rx="22" fill="#0F172A"/>
  <path d="M48 17L70 26V43C70 57.8 61.2 70.1 48 76C34.8 70.1 26 57.8 26 43V26L48 17Z" fill="#0F766E"/>
  <path d="M48 25L62 31V43C62 53.1 56.7 61.7 48 66.5C39.3 61.7 34 53.1 34 43V31L48 25Z" fill="#F8FAFC"/>
  <circle cx="48" cy="42" r="7" fill="#0F172A"/>
  <circle cx="31" cy="28" r="4" fill="#14B8A6"/>
  <circle cx="73" cy="33" r="4" fill="#14B8A6"/>
  <circle cx="70" cy="68" r="4" fill="#14B8A6"/>
  <circle cx="27" cy="66" r="4" fill="#14B8A6"/>
  <path d="M34.5 31.5L44 39" stroke="#14B8A6" stroke-width="3" stroke-linecap="round"/>
  <path d="M60.5 35L53 40" stroke="#14B8A6" stroke-width="3" stroke-linecap="round"/>
  <path d="M54 48L66.5 64.5" stroke="#14B8A6" stroke-width="3" stroke-linecap="round"/>
  <path d="M42 48L30.5 62.5" stroke="#14B8A6" stroke-width="3" stroke-linecap="round"/>
</svg>
